Simulation
nRows=32
nColumns=15
endheader
time  TH_x TH_y TH_z SC_y  SC_z  SC_x  AC_y  AC_z  AC_x  GH_y  GH_z  GH_yy  EL_x  PS_y
0.75  0.000000  0.000000  0.000000  -33.968214547349966  2.3911621256442968  19.990136954486175  60.936685594683105  1.7193564194099116  -12.577696093413053  20.63627052779067  29.16609005722828  -17.427813194063056  19.948743008629386  0.000000
0.765  0.000000  0.000000  0.000000  -34.13762644762793  2.5434044271630096  20.244826765007215  61.02233374473849  2.092919651209856  -12.49604797689946  20.710915201076457  29.675158056606843  -17.762325075323645  19.74667456256196  0.000000
0.78  0.000000  0.000000  0.000000  -34.31581085764777  2.699372321032232  20.505635722403415  61.10681523037813  2.4604510877601107  -12.40553148191597  20.792876870904276  30.16848000411623  -18.095706277395553  19.543970724204954  0.000000
0.7949999999999999  0.000000  0.000000  0.000000  -34.50330534135649  2.8583820649299847  20.773172865029636  61.19188076773935  2.8200934062425325  -12.305300245948633  20.881491874119444  30.646112290554722  -18.42806629551105  19.34081082794531  0.000000
0.8099999999999999  0.000000  0.000000  0.000000  -34.700713875947805  3.0196954487247356  21.04795280079532  61.27926357223517  3.169829064514279  -12.19449169541643  20.976015955472946  31.10840073378609  -18.75944461016762  19.137358454376955  0.000000
0.825  0.000000  0.000000  0.000000  -34.90893656854554  3.1826835717838007  21.33069274775661  61.37117064316633  3.50739403833385  -12.072349565104151  21.075423612531733  31.555600301723718  -19.089851058713084  18.93402673452617  0.000000
0.84  0.000000  0.000000  0.000000  -35.12890968125108  3.346605898649451  21.621830471428503  61.469884027057056  3.8306692358188386  -11.93823716077628  21.17856552868998  31.98818630350671  -19.419181195159855  18.73112108324207  0.000000
0.855  0.000000  0.000000  0.000000  -35.361345822077624  3.5103931040595127  21.92206311950334  61.577465728221796  4.137752124289524  -11.791830007413278  21.28422620500057  32.40635170203801  -19.747154743840348  18.52895489198678  0.000000
0.87  0.000000  0.000000  0.000000  -35.60651726498852  3.6728970829816983  22.231372914093487  61.69563265620304  4.42727435031997  -11.63329703625036  21.391406539361736  32.810645268004095  -20.073510053010594  18.327827089540254  0.000000
0.885  0.000000  0.000000  0.000000  -35.86424507469842  3.832858362178982  22.549752748544268  61.825351358089186  4.69850111420257  -11.463346646077133  21.499418982922485  33.20114029942482  -20.3976866535239  18.128402338263143  0.000000
0.8999999999999999  0.000000  0.000000  0.000000  -36.13375376782036  3.9890235257678546  22.87629861084892  61.966777809303125  4.951553884982719  -11.28329588912852  21.607981342971517  33.578164138495914  -20.71907367763808  17.93136788234982  0.000000
0.9149999999999999  0.000000  0.000000  0.000000  -36.41382777727253  4.140130526141027  23.21006851855575  62.11916335464632  5.1872905695706315  -11.095023676801699  21.717078977315698  33.94147117077792  -21.036778925936936  17.737854868685385  0.000000
0.9299999999999999  0.000000  0.000000  0.000000  -36.70304942417413  4.2852463167612225  23.549445209353447  62.281172922112006  5.4068129351284995  -10.900545850110332  21.82683510943911  34.29121824993952  -21.35002578938201  17.54848468803593  0.000000
0.945  0.000000  0.000000  0.000000  -36.99934868016603  4.423657537771885  23.892032409035874  62.45049737379705  5.612411746808523  -10.70181051803943  21.936804615890075  34.626825369592744  -21.657655249711173  17.364466833971512  0.000000
0.96  0.000000  0.000000  0.000000  -37.3002819637352  4.554981534439978  24.235699188637973  62.624655831779556  5.8058376151845925  -10.500971801447479  22.04630718617134  34.94799017044207  -21.958471037707206  17.187060123802443  0.000000
0.975  0.000000  0.000000  0.000000  -37.60457576592222  4.6792820915711415  24.57981990163343  62.802751796222616  5.987117839998348  -10.299142379030851  22.155200186174376  35.254659656348345  -22.25161143770646  17.015979106316728  0.000000
0.99  0.000000  0.000000  0.000000  -37.910242903742876  4.7961045320461695  24.922079197658334  62.983404621934056  6.157770476722953  -10.09745442206655  22.262781072918873  35.547264134871284  -22.536064613742283  16.85218640691811  0.000000
1.005  0.000000  0.000000  0.000000  -38.2147910505575  4.905192178273636  25.26168061521978  63.165162800178194  6.318561176452811  -9.897705202622015  22.368035025078147  35.82554645563046  -22.81057745609534  16.696931018664852  0.000000
1.02  0.000000  0.000000  0.000000  -38.516566484429255  5.006796065746861  25.597707919168545  63.347205158669226  6.469655682151627  -9.700993913981247  22.470527237528113  36.09005352195948  -23.074149937917483  16.550402984976515  0.000000
1.035  0.000000  0.000000  0.000000  -38.81429314387287  5.10051667751624  25.929151602808172  63.52867701282502  6.611861569021818  -9.508226091774295  22.56952684627897  36.34103807875342  -23.32567994470173  16.41334300213201  0.000000
1.05  0.000000  0.000000  0.000000  -39.106616371688446  5.186213125550652  26.254558246030392  63.70865877920188  6.745505471571238  -9.320540306568983  22.66353037362127  36.57943300763625  -23.564392464754743  16.286247874200384  0.000000
1.065  0.000000  0.000000  0.000000  -39.39238834653722  5.264246830414608  26.57276513770193  63.88632070934448  6.870767801419166  -9.138517471166917  22.750321056218983  36.80536272267981  -23.789502185052623  16.169111943567433  0.000000
1.08  0.000000  0.000000  0.000000  -39.67034859613392  5.335122705155663  26.8824921712705  64.06040282002981  6.987471872511675  -8.962918797693746  22.82741838625385  37.01930229274988  -24.00030426671843  16.062091791537707  0.000000
1.095  0.000000  0.000000  0.000000  -39.94013270648301  5.399130166521182  27.182878330099285  64.23024303056083  7.0956723316205  -8.794052918966463  22.893253886187537  37.221335843485974  -24.19600475610935  15.965098835384307  0.000000
1.1099999999999999  0.000000  0.000000  0.000000  -40.20109340536553  5.456548084451249  27.472854007145234  64.39512059655146  7.19522676465171  -8.632589966290501  22.947102559137644  37.412450878902156  -24.376174275401826  15.878135333380381  0.000000
1.125  0.000000  0.000000  0.000000  -40.452068004586  5.507735973951298  27.75170779782161  64.55432057175128  7.286599376605484  -8.478983560049901  22.988537299299317  37.59274797378745  -24.54031142282172  15.801433913644274  0.000000
1.14  0.000000  0.000000  0.000000  -40.69157341123176  5.553343898033561  28.018393984265543  64.70698284818367  7.369871878804529  -8.3337734048586  23.017355192739068  37.76319016248205  -24.688148723039287  15.73522764693073  0.000000
1.155  0.000000  0.000000  0.000000  -40.91844631811977  5.594239396391713  28.272415108001056  64.85208200256848  7.445362039833183  -8.196882264410492  23.033766846513846  37.92375703750547  -24.819286857648468  15.679993561337376  0.000000
1.17  0.000000  0.000000  0.000000  -41.13153697027884  5.631847331043473  28.51309837552977  64.98850316530397  7.512494905109997  -8.068584959337723  23.038148733574182  38.075413791568955  -24.93376890251492  15.636166762103594  0.000000
1.185  0.000000  0.000000  0.000000  -41.33025851881983  5.666666053812843  28.74034371621923  65.11551423167829  7.571200553292497  -7.948840741982076  23.03081885864081  38.21843930921882  -25.03181632314973  15.603930794263087  0.000000
1.2  0.000000  0.000000  0.000000  -41.51415928128096  5.699289303512182  28.953476975999582  65.23188790771134  7.62132202084183  -7.83765681908548  23.01217975118263  38.354004895443616  -25.11392335947601  15.583209543818839  0.000000
1.2149999999999999  0.000000  0.000000  0.000000  -41.68325915465848  5.73070441015518  29.151584686869004  65.33727772121699  7.664058710717758  -7.734889758433938  22.982248303182168  38.48191587116327  -25.180948234566227  15.573848647555018  0.000000
